PathFileType	4	(X/Y/Z)	E:\Marcel_BSc\Hannes_22_01_2025\22-01-2025\sumo_dl_3.trc
DataRate	CameraRate	NumFrames	NumMarkers	Units	OrigDataRate	OrigDataStartFrame	OrigNumFrames
200.0	200.0	4	48	mm	200.0	2472	2673	
Frame#	Time	FHD			LBHD			RBHD			RBAR			LBAR			RSACR			LSACR			USACR			LASI			C7			CLAV			T10			RSHO			LSHO			LTHI1			LTHI3			LTHI2			LTIB1			LTIB2			LTIB3			LMMAL			LLMAL			LHEE			LMT1			LMT5			LMT3			RTHI1			RTHI2			RTHI3			RTIB1			RTIB3			RTIB2			RLMAL			RMMAL			RHEE			RMT5			RMT1			RMT3			LDUPA			LMUPA			LUUPA			LUL			LRAD			LRFIN			RRAD			RMUPA			RDUPA			RUUPA			
		X1	Y1	Z1	X2	Y2	Z2	X3	Y3	Z3	X4	Y4	Z4	X5	Y5	Z5	X6	Y6	Z6	X7	Y7	Z7	X8	Y8	Z8	X9	Y9	Z9	X10	Y10	Z10	X11	Y11	Z11	X12	Y12	Z12	X13	Y13	Z13	X14	Y14	Z14	X15	Y15	Z15	X16	Y16	Z16	X17	Y17	Z17	X18	Y18	Z18	X19	Y19	Z19	X20	Y20	Z20	X21	Y21	Z21	X22	Y22	Z22	X23	Y23	Z23	X24	Y24	Z24	X25	Y25	Z25	X26	Y26	Z26	X27	Y27	Z27	X28	Y28	Z28	X29	Y29	Z29	X30	Y30	Z30	X31	Y31	Z31	X32	Y32	Z32	X33	Y33	Z33	X34	Y34	Z34	X35	Y35	Z35	X36	Y36	Z36	X37	Y37	Z37	X38	Y38	Z38	X39	Y39	Z39	X40	Y40	Z40	X41	Y41	Z41	X42	Y42	Z42	X43	Y43	Z43	X44	Y44	Z44	X45	Y45	Z45	X46	Y46	Z46	X47	Y47	Z47	X48	Y48	Z48	
2472	12.35	-357.69031	848.23242	-976.64526	-300.39734	918.93909	-874.53271	-299.49277	937.07892	-1069.1759	93.50148	236.60994	-2058.6316	137.57349	249.58984	162.43132	406.40198	938.55908	-999.82141	408.98236	937.70679	-937.15369	387.53333	947.74048	-971.86298				-109.94322	1003.5731	-962.89148	-101.27878	822.66687	-968.51764	214.89648	996.98236	-964.87439	-107.61579	878.64087	-1166.6218	-104.96788	878.7254	-771.9682	369.93961	731.62402	-687.28857	360.53793	672.74841	-659.0155	319.3869	702.27759	-655.00079	238.84201	274.40976	-503.01254	281.62582	271.01501	-531.67261	260.10757	212.75665	-513.16357	188.58301	83.250343	-559.61169	248.14734	81.504066	-489.63583	269.75519	25.764643	-545.9798	77.629051	41.670547	-454.16928	149.18132	30.227604	-392.58188	101.15666	32.731609	-411.25299	384.51993	708.05518	-1230.2004	332.09293	683.96893	-1262.509	369.23645	650.23358	-1258.4751	215.16	281.05334	-1397.4979	228.41562	217.52689	-1399.7405	262.74365	269.33499	-1384.0211	233.9344	78.960243	-1408.9871	165.33919	82.524269	-1341.3776	257.49207	29.033768	-1352.7773	145.89182	25.041731	-1500.2517	63.72971	36.033501	-1456.0449	93.061829	28.840189	-1494.5017	-3.0694087	656.97577	-696.99805	-28.823492	713.44885	-704.53314	-54.938553	695.47406	-743.49323	67.656242	335.48071	-688.52032	64.067345	331.53918	-739.34106	75.167099	230.42986	-754.66571	123.29149	342.3244	-1213.8658	37.852097	696.93176	-1222.1797	22.772617	649.96814	-1213.8735	-20.857548	716.05127	-1212.5675
2473	12.355	-357.68372	848.95123	-976.67493	-300.21783	919.46295	-874.56964	-299.36612	937.80627	-1069.158	93.40683	236.51566	-2058.6748	137.52516	249.53561	162.41832	406.62549	937.89191	-999.64044	409.28253	937.06134	-936.84851	387.72479	947.17188	-971.82343				-109.81951	1003.7845	-962.82953	-101.38853	822.9588	-968.5166	215.19742	996.76013	-964.8501	-107.66586	878.85223	-1166.6488	-105.08291	878.92578	-771.9397	369.72708	731.27063	-687.10596	360.24161	672.35321	-658.85736	319.27136	701.85376	-654.77698	238.48112	274.36185	-502.92288	281.58008	270.96161	-531.58569	259.72168	212.76698	-513.13605	188.44518	83.194878	-559.66785	248.03189	81.51651	-489.70105	269.67285	25.766218	-546.0271	77.525299	41.661152	-454.17804	149.14157	30.254763	-392.61121	101.09731	32.736389	-411.25522	384.06537	707.55438	-1230.1793	331.63309	683.54694	-1262.5667	368.68436	649.75439	-1258.5553	214.51581	281.05768	-1397.4736	227.94072	217.52531	-1399.7446	262.26944	269.17456	-1384.087	233.77574	79.004791	-1408.8971	165.14168	82.428093	-1341.2954	257.40295	29.086218	-1352.7319	145.83801	25.089054	-1500.2073	63.631245	36.038548	-1456.0096	92.987892	28.840105	-1494.4791	-3.4420502	657.07202	-696.99896	-29.165186	713.56488	-704.54675	-55.093758	695.58081	-743.64447	67.511009	335.48474	-688.53162	63.954227	331.63013	-739.29126	75.087433	230.52858	-754.63672	123.15718	342.20093	-1213.7042	37.671566	697.00037	-1222.2196	22.585388	650.07159	-1213.9104	-21.040104	716.1369	-1212.6484
2474	12.36	-357.64374	849.57208	-976.68408	-300.18826	920.08392	-874.52838	-299.20184	938.32196	-1069.1554	93.186874	236.50102	-2058.1077	137.45212	249.47937	162.44154	406.75269	937.34247	-999.65295	409.34299	936.62555	-937.07245	387.8873	946.70203	-971.81921				-109.73311	1003.905	-962.78809	-101.53545	823.14508	-968.50592	215.37802	996.64355	-964.83063	-107.76572	878.98126	-1166.6665	-105.2617	879.11786	-771.81396	369.68405	730.80591	-686.87183	360.1026	672.0459	-658.66949	319.18332	701.59619	-654.5556	238.30074	274.33356	-502.79636	281.33936	270.99857	-531.49036	259.60416	212.73392	-513.07764	188.34154	83.176453	-559.65942	247.96219	81.511032	-489.73212	269.62628	25.7752	-546.05609	77.465324	41.660355	-454.16507	149.10806	30.237953	-392.59085	101.07059	32.743008	-411.22806	383.74902	707.05829	-1230.2355	331.19064	683.24188	-1262.5753	368.2215	649.4342	-1258.6298	213.95261	281.04718	-1397.5516	227.50911	217.51888	-1399.7599	261.76874	269.33145	-1384.1735	233.55467	79.073097	-1408.8492	164.9879	82.326492	-1341.2352	257.33691	29.102575	-1352.7054	145.76746	25.098797	-1500.1746	63.562126	36.03075	-1456.0032	92.943855	28.866417	-1494.4744	-3.7586761	657.1568	-696.98627	-29.462366	713.67114	-704.55334	-55.228256	695.91534	-743.59735	67.294769	335.58279	-688.44531	63.80117	331.72418	-739.211	75.019417	230.63889	-754.59888	123.09885	342.21069	-1213.7535	37.467529	697.05255	-1222.2244	22.38657	650.12189	-1213.9382	-21.252319	716.18109	-1212.6807
2475	12.365	-357.61694	850.24713	-976.49384	-300.14832	920.65417	-874.4668	-299.11209	938.75623	-1069.1403	93.27269	236.43094	-2058.6606	137.39203	249.43317	162.44839	406.83731	936.86914	-999.66669	409.61572	936.19299	-936.88702	387.97629	946.27234	-971.85168				-109.6609	1004.0956	-962.79132	-101.72544	823.25043	-968.46674	215.54489	996.47388	-964.94897	-107.94051	879.12537	-1166.655	-105.40255	879.2934	-771.76746	369.77213	730.51892	-686.65393	360.10953	671.75165	-658.41919	319.17853	701.42017	-654.27332	238.21024	274.36063	-502.55853	281.22614	270.99359	-531.38208	259.48376	212.77031	-512.95435	188.29779	83.183502	-559.62604	247.92053	81.49295	-489.71506	269.59805	25.775703	-546.06	77.463051	41.664619	-454.16141	149.12209	30.202978	-392.55475	101.06346	32.737335	-411.18649	383.42804	706.69293	-1230.245	330.8302	683.02209	-1262.5854	367.80945	649.12231	-1258.6987	213.54327	280.94821	-1397.6342	227.15308	217.60257	-1399.7819	261.10651	269.90698	-1383.9897	233.39578	79.128937	-1408.8214	164.88855	82.253838	-1341.1862	257.26855	29.135384	-1352.696	145.75858	25.132919	-1500.1665	63.480915	36.048714	-1456.0002	92.896202	28.885611	-1494.4733	-4.0266328	657.20801	-696.9519	-29.723539	713.72455	-704.54889	-55.396885	695.98065	-743.63995	67.201111	335.65186	-688.41345	63.725948	331.78391	-739.19348	74.937622	230.72243	-754.5835	123.01963	342.24384	-1213.7675	37.253723	697.03497	-1222.2123	22.168802	650.12543	-1213.916	-21.495764	716.18976	-1212.668
